<svg width="1322" height="759" viewBox="0 0 1322 759" fill="none" xmlns="http://www.w3.org/2000/svg">
<rect x="16" width="1306" height="745" rx="10" fill="url(#paint0_linear)"/>
<mask id="mask0" mask-type="alpha" maskUnits="userSpaceOnUse" x="16" y="0" width="1306" height="745">
<rect x="16" width="1306" height="745" rx="10" fill="url(#paint1_linear)"/>
</mask>
<g mask="url(#mask0)">
<path d="M487.109 635H906.148L1126 758L242 758L487.109 635Z" fill="url(#paint2_linear)"/>
<path d="M1320 618H16V532.5L90.5 541.5L156 522L304 541.5L409.5 486.5L565 561.5L589.5 532.5L675 573.5L800 532.5L920.5 486.5L1064 561.5L1228.5 522L1320 573.5V618Z" fill="url(#paint3_linear)"/>
<ellipse cx="669" cy="344" rx="346" ry="342" fill="url(#paint4_linear)"/>
<path d="M202.996 759L230.252 460.59L216.329 459.234L191.095 759H202.996Z" fill="#467C8B"/>
<path d="M74.1029 758.13L96.249 447.487L84.502 446.182L64.0535 758.13H74.1029Z" fill="#466973"/>
<path d="M-4.09946 738.552L23.1566 440.142L9.23427 438.786L-16 738.552H-4.09946Z" fill="#007293" fill-opacity="0.6"/>
<path d="M255.486 364.823L10.9745 273.458V439.221L242.434 461.845L255.486 364.823Z" fill="url(#paint5_linear)"/>
<path d="M295.513 344.317L255.486 365.693L11.4096 273.893V209.937L295.513 344.317Z" fill="#007293"/>
<path d="M295.513 345.68L247.227 255.706L8.36414 109V210.054L295.513 345.68Z" fill="url(#paint6_linear)"/>
<path d="M12.2798 678.076L47.9558 668.94L199.797 681.68L12.2798 742.032V678.076Z" fill="url(#paint7_linear)"/>
<circle cx="47.5207" cy="684.167" r="22.6238" fill="url(#paint8_linear)"/>
<circle cx="104.95" cy="671.985" r="22.6238" fill="url(#paint9_linear)"/>
<circle cx="80.5863" cy="689.388" r="22.6238" fill="url(#paint10_linear)"/>
<path d="M1146.45 212.102L1239.16 195L1268.86 612.637L1216.43 602.961L1164 593.285L1146.45 212.102Z" fill="url(#paint11_linear)"/>
<line x1="1150.99" y1="210.513" x2="1177.1" y2="757.762" stroke="#467C8B" stroke-width="10"/>
</g>
<defs>
<linearGradient id="paint0_linear" x1="669" y1="0" x2="669" y2="745" gradientUnits="userSpaceOnUse">
<stop stop-color="#FFCDAA"/>
<stop offset="0.567708" stop-color="#FFD585"/>
<stop offset="0.838542" stop-color="#FFAA8F"/>
<stop offset="0.973958" stop-color="#FF8697"/>
</linearGradient>
<linearGradient id="paint1_linear" x1="669" y1="0" x2="669" y2="745" gradientUnits="userSpaceOnUse">
<stop stop-color="#FFC899"/>
<stop offset="0.567708" stop-color="#FFD585"/>
<stop offset="0.838542" stop-color="#FFAA8F"/>
<stop offset="0.973958" stop-color="#FF8697"/>
</linearGradient>
<linearGradient id="paint2_linear" x1="684.56" y1="635" x2="684.417" y2="758" gradientUnits="userSpaceOnUse">
<stop stop-color="#FF7FA3" stop-opacity="0"/>
<stop offset="1" stop-color="#F25949"/>
</linearGradient>
<linearGradient id="paint3_linear" x1="668" y1="486.5" x2="668" y2="618" gradientUnits="userSpaceOnUse">
<stop stop-color="#CC6D44"/>
<stop offset="0.807292" stop-color="#FF7C60" stop-opacity="0.385417"/>
<stop offset="1" stop-color="#FE31AC" stop-opacity="0"/>
</linearGradient>
<linearGradient id="paint4_linear" x1="669" y1="2" x2="669" y2="622.5" gradientUnits="userSpaceOnUse">
<stop stop-color="white"/>
<stop offset="0.713542" stop-color="#FDE4D0" stop-opacity="0.515625"/>
<stop offset="0.84375" stop-color="#FFD7B5" stop-opacity="0"/>
</linearGradient>
<linearGradient id="paint5_linear" x1="255.486" y1="426.169" x2="10.9745" y2="416.597" gradientUnits="userSpaceOnUse">
<stop stop-color="#46DECC"/>
<stop offset="1" stop-color="#2389A6"/>
</linearGradient>
<linearGradient id="paint6_linear" x1="151.938" y1="109" x2="151.938" y2="345.68" gradientUnits="userSpaceOnUse">
<stop stop-color="#01669E"/>
<stop offset="1" stop-color="#69FFDB" stop-opacity="0.8"/>
</linearGradient>
<linearGradient id="paint7_linear" x1="134.535" y1="669.375" x2="17.5007" y2="731.155" gradientUnits="userSpaceOnUse">
<stop stop-color="#35A4AB"/>
<stop offset="1" stop-color="#3A687B"/>
</linearGradient>
<linearGradient id="paint8_linear" x1="24.8969" y1="661.544" x2="72.668" y2="672.555" gradientUnits="userSpaceOnUse">
<stop stop-color="#FFA558"/>
<stop offset="0.463542" stop-color="#FF9B46"/>
<stop offset="1" stop-color="#FFD89D"/>
</linearGradient>
<linearGradient id="paint9_linear" x1="82.3267" y1="649.361" x2="130.098" y2="660.372" gradientUnits="userSpaceOnUse">
<stop stop-color="#FFA558"/>
<stop offset="0.463542" stop-color="#FF9B46"/>
<stop offset="1" stop-color="#FFD89D"/>
</linearGradient>
<linearGradient id="paint10_linear" x1="57.9625" y1="666.764" x2="105.734" y2="677.775" gradientUnits="userSpaceOnUse">
<stop stop-color="#FFA558"/>
<stop offset="0.463542" stop-color="#FF9B46"/>
<stop offset="1" stop-color="#FFD89D"/>
</linearGradient>
<linearGradient id="paint11_linear" x1="1237.81" y1="370.066" x2="1133.85" y2="365.565" gradientUnits="userSpaceOnUse">
<stop stop-color="#268FA8"/>
<stop offset="1" stop-color="#7FEECA"/>
</linearGradient>
</defs>
</svg>
