<svg width="375" height="597" viewBox="0 0 375 597" fill="none" xmlns="http://www.w3.org/2000/svg">
<mask id="mask0" mask-type="alpha" maskUnits="userSpaceOnUse" x="0" y="0" width="376" height="597">
<rect width="376" height="597" rx="10" fill="#C4C4C4"/>
</mask>
<g mask="url(#mask0)">
<rect y="-1" width="375" height="598" rx="10" fill="url(#paint0_linear)"/>
<mask id="mask1" mask-type="alpha" maskUnits="userSpaceOnUse" x="-195" y="-1" width="766" height="667">
<rect x="-195" y="-1" width="765.034" height="667" rx="10" fill="url(#paint1_linear)"/>
</mask>
<g mask="url(#mask1)">
<path d="M108.709 520H277.462L366 597L10 597L108.709 520Z" fill="url(#paint2_linear)"/>
<path d="M568.863 504.154H-195V434.267L-151.359 441.623L-112.99 425.684L-26.2941 441.623L35.5061 396.666L126.596 457.971L140.947 434.267L191.032 467.78L264.255 434.267L334.842 396.666L418.902 457.971L515.263 425.684L568.863 467.78V504.154Z" fill="url(#paint3_linear)"/>
<ellipse cx="187.5" cy="255" rx="241.5" ry="248" fill="url(#paint4_linear)"/>
<path d="M316 387.821L360.684 380L375 571L349.73 566.575L324.46 562.15L316 387.821Z" fill="url(#paint5_linear)"/>
<line y1="-2.5" x2="281.539" y2="-2.5" transform="matrix(0.0496893 0.998765 -0.998956 0.045681 315 385)" stroke="#467C8B" stroke-width="5"/>
<path d="M64.8491 607L74.7871 498.195L69.7108 497.701L60.51 607H64.8491Z" fill="#467C8B"/>
<path d="M17.8531 606.683L25.9279 493.418L21.6448 492.942L14.189 606.683H17.8531Z" fill="#466973"/>
<path d="M83.9881 463.277L-5.16455 429.964V490.404L79.229 498.653L83.9881 463.277Z" fill="url(#paint6_linear)"/>
<path d="M98.5822 455.8L83.9879 463.594L-5.0061 430.122V406.803L98.5822 455.8Z" fill="#007293"/>
<path d="M98.5823 456.297L80.9767 423.491L-6.11646 370V406.846L98.5823 456.297Z" fill="url(#paint7_linear)"/>
<path d="M-4.68872 577.494L8.31931 574.163L63.6828 578.808L-4.68872 600.813V577.494Z" fill="url(#paint8_linear)"/>
<circle cx="8.16062" cy="579.715" r="8.249" fill="url(#paint9_linear)"/>
<circle cx="29.1006" cy="575.273" r="8.249" fill="url(#paint10_linear)"/>
<circle cx="20.217" cy="581.618" r="8.249" fill="url(#paint11_linear)"/>
</g>
</g>
<defs>
<linearGradient id="paint0_linear" x1="187.5" y1="-1" x2="187.5" y2="597" gradientUnits="userSpaceOnUse">
<stop stop-color="#FFCDAA"/>
<stop offset="0.567708" stop-color="#FFD585"/>
<stop offset="0.838542" stop-color="#FFAA8F"/>
<stop offset="0.973958" stop-color="#FF8697"/>
</linearGradient>
<linearGradient id="paint1_linear" x1="187.517" y1="-1" x2="187.517" y2="666" gradientUnits="userSpaceOnUse">
<stop stop-color="#FFC899"/>
<stop offset="0.567708" stop-color="#FFD585"/>
<stop offset="0.838542" stop-color="#FFAA8F"/>
<stop offset="0.973958" stop-color="#FF8697"/>
</linearGradient>
<linearGradient id="paint2_linear" x1="188.226" y1="520" x2="188.086" y2="597" gradientUnits="userSpaceOnUse">
<stop stop-color="#FF7FA3" stop-opacity="0"/>
<stop offset="1" stop-color="#F25949"/>
</linearGradient>
<linearGradient id="paint3_linear" x1="186.931" y1="396.666" x2="186.931" y2="504.154" gradientUnits="userSpaceOnUse">
<stop stop-color="#CC6D44"/>
<stop offset="0.807292" stop-color="#FF7C60" stop-opacity="0.385417"/>
<stop offset="1" stop-color="#FE31AC" stop-opacity="0"/>
</linearGradient>
<linearGradient id="paint4_linear" x1="187.5" y1="7" x2="187.5" y2="456.953" gradientUnits="userSpaceOnUse">
<stop stop-color="white"/>
<stop offset="0.713542" stop-color="#FDE4D0" stop-opacity="0.515625"/>
<stop offset="0.84375" stop-color="#FFD7B5" stop-opacity="0"/>
</linearGradient>
<linearGradient id="paint5_linear" x1="360.033" y1="460.064" x2="309.937" y2="457.778" gradientUnits="userSpaceOnUse">
<stop stop-color="#268FA8"/>
<stop offset="1" stop-color="#7FEECA"/>
</linearGradient>
<linearGradient id="paint6_linear" x1="83.9881" y1="485.645" x2="-5.16455" y2="482.155" gradientUnits="userSpaceOnUse">
<stop stop-color="#46DECC"/>
<stop offset="1" stop-color="#2389A6"/>
</linearGradient>
<linearGradient id="paint7_linear" x1="46.2329" y1="370" x2="46.2329" y2="456.297" gradientUnits="userSpaceOnUse">
<stop stop-color="#01669E"/>
<stop offset="1" stop-color="#69FFDB" stop-opacity="0.8"/>
</linearGradient>
<linearGradient id="paint8_linear" x1="39.8876" y1="574.321" x2="-2.7851" y2="596.847" gradientUnits="userSpaceOnUse">
<stop stop-color="#35A4AB"/>
<stop offset="1" stop-color="#3A687B"/>
</linearGradient>
<linearGradient id="paint9_linear" x1="-0.0883789" y1="571.466" x2="17.3297" y2="575.481" gradientUnits="userSpaceOnUse">
<stop stop-color="#FFA558"/>
<stop offset="0.463542" stop-color="#FF9B46"/>
<stop offset="1" stop-color="#FFD89D"/>
</linearGradient>
<linearGradient id="paint10_linear" x1="20.8516" y1="567.024" x2="38.2696" y2="571.039" gradientUnits="userSpaceOnUse">
<stop stop-color="#FFA558"/>
<stop offset="0.463542" stop-color="#FF9B46"/>
<stop offset="1" stop-color="#FFD89D"/>
</linearGradient>
<linearGradient id="paint11_linear" x1="11.968" y1="573.369" x2="29.3861" y2="577.384" gradientUnits="userSpaceOnUse">
<stop stop-color="#FFA558"/>
<stop offset="0.463542" stop-color="#FF9B46"/>
<stop offset="1" stop-color="#FFD89D"/>
</linearGradient>
</defs>
</svg>
