<svg width="1440" height="1029" viewBox="0 0 1440 1029" fill="none" xmlns="http://www.w3.org/2000/svg">
<rect width="1440" height="900" fill="url(#paint0_linear)"/>
<circle cx="7" cy="100" r="95" fill="white"/>
<circle cx="56" cy="61" r="95" fill="white"/>
<circle cx="135" cy="123" r="95" fill="white"/>
<circle cx="172" cy="61" r="95" fill="white"/>
<circle cx="220" cy="107" r="95" fill="white"/>
<circle cx="63" cy="86" r="95" fill="white"/>
<g filter="url(#filter0_d)">
<circle cx="631.5" cy="192.5" r="35.5" fill="white"/>
<circle cx="666.5" cy="168.5" r="35.5" fill="white"/>
<circle cx="673.5" cy="197.5" r="35.5" fill="white"/>
<circle cx="702.5" cy="177.5" r="35.5" fill="white"/>
</g>
<g filter="url(#filter1_d)">
<circle cx="813.075" cy="231.675" r="23.075" fill="white"/>
<circle cx="835.825" cy="216.075" r="23.075" fill="white"/>
<circle cx="840.375" cy="234.925" r="23.075" fill="white"/>
<circle cx="851.075" cy="232.075" r="23.075" fill="white"/>
</g>
<g filter="url(#filter2_d)">
<circle cx="404.25" cy="142.898" r="51.25" fill="white"/>
<circle cx="454.778" cy="108.25" r="51.25" fill="white"/>
<circle cx="464.884" cy="150.116" r="51.25" fill="white"/>
<circle cx="506.75" cy="121.243" r="51.25" fill="white"/>
</g>
<path d="M1448 93.7352C1287.08 85.8264 1129.39 141.968 1007.62 250.515C885.847 359.062 809.352 511.683 794 676.719" stroke="#FF6698" stroke-width="30"/>
<path d="M1440.2 119.898C1288.87 112.453 1140.56 165.302 1026.04 267.481C911.525 369.661 839.587 513.329 825.149 668.684" stroke="#FFB366" stroke-width="30"/>
<path d="M1442 143.655C1296.59 136.609 1154.08 186.623 1044.04 283.321C934 380.019 864.874 515.979 851 663" stroke="#FFFF66" stroke-width="30"/>
<path d="M1451 165.644C1307.55 158.72 1166.98 207.868 1058.43 302.892C949.876 397.916 881.686 531.524 868 676" stroke="#98FF66" stroke-width="30"/>
<path d="M1451 193.618C1313.21 186.966 1178.18 234.19 1073.91 325.495C969.646 416.8 904.146 545.179 891 684" stroke="#6698FF" stroke-width="30"/>
<mask id="mask0" mask-type="alpha" maskUnits="userSpaceOnUse" x="-258" y="644" width="1862" height="385">
<ellipse cx="673" cy="836.5" rx="931" ry="192.5" fill="url(#paint1_linear)"/>
</mask>
<g mask="url(#mask0)">
<rect x="-302.826" y="639.43" width="1788.44" height="222.774" fill="url(#paint2_linear)"/>
</g>
<path d="M847.609 294.837C847.594 294.561 847.805 294.325 848.081 294.31L1050.08 283.006L1128.64 278.609C1128.92 278.594 1129.15 278.805 1129.17 279.081L1132.1 331.526C1132.12 331.802 1131.91 332.038 1131.63 332.054L851.071 347.754C850.796 347.769 850.56 347.558 850.544 347.282L847.609 294.837Z" fill="#CD7A2C" stroke="#885E1F" stroke-width="3"/>
<mask id="path-28-inside-1" fill="white">
<rect x="1119.45" y="284" width="163.53" height="48.1246" rx="2" transform="rotate(3.5472 1119.45 284)"/>
</mask>
<rect x="1119.45" y="284" width="163.53" height="48.1246" rx="2" transform="rotate(3.5472 1119.45 284)" fill="#CD7A2C" stroke="#885E1F" stroke-width="6" mask="url(#path-28-inside-1)"/>
<rect x="1062.5" y="376.5" width="216" height="37" rx="1.5" fill="#CD7A2C" stroke="#885E1F" stroke-width="3"/>
<path d="M847.664 339.501C847.66 339.229 847.875 339.003 848.147 338.994L1288.15 323.572C1288.44 323.562 1288.67 323.788 1288.67 324.071L1288.67 377.769C1288.67 378.042 1288.45 378.264 1288.18 378.269L848.865 385.027C848.589 385.031 848.361 384.811 848.357 384.535L847.664 339.501Z" fill="#CD7A2C" stroke="#885E1F" stroke-width="3"/>
<path d="M860.549 383.249C860.542 382.969 860.765 382.739 861.045 382.737L1064.72 381.234C1065 381.232 1065.22 381.453 1065.23 381.729L1065.56 415.456C1065.56 415.729 1065.35 415.954 1065.07 415.961L861.954 420.851C861.678 420.858 861.449 420.64 861.442 420.364L860.549 383.249Z" fill="#CD7A2C" stroke="#885E1F" stroke-width="3"/>
<rect x="880.606" y="419.969" width="10.9122" height="172" transform="rotate(4.71698 880.606 419.969)" fill="#CD7A2C" stroke="#885E1F" stroke-width="3"/>
<rect x="1247.95" y="413.902" width="10.9122" height="172" transform="rotate(-1.14862 1247.95 413.902)" fill="#CD7A2C" stroke="#885E1F" stroke-width="3"/>
<path d="M831.5 627C831.5 626.724 831.724 626.5 832 626.5H1114C1114.28 626.5 1114.5 626.724 1114.5 627V682.946C1114.5 683.227 1114.27 683.453 1113.99 683.446L831.987 675.916C831.716 675.909 831.5 675.687 831.5 675.416V627Z" fill="#CD7A2C" stroke="#885E1F" stroke-width="3"/>
<path d="M1109.5 628C1109.5 627.724 1109.72 627.5 1110 627.5H1305C1305.28 627.5 1305.5 627.724 1305.5 628V685C1305.5 685.276 1305.28 685.5 1305 685.5H1110C1109.72 685.5 1109.5 685.276 1109.5 685V628Z" fill="#CD7A2C" stroke="#885E1F" stroke-width="3"/>
<mask id="path-36-inside-2" fill="white">
<rect x="836" y="657" width="157" height="54" rx="2"/>
</mask>
<rect x="836" y="657" width="157" height="54" rx="2" fill="#CD7A2C" stroke="#885E1F" stroke-width="6" mask="url(#path-36-inside-2)"/>
<path d="M829.5 711.945C829.5 711.674 829.715 711.453 829.986 711.445L1040.99 705.557C1041.27 705.549 1041.5 705.775 1041.5 706.057V756C1041.5 756.276 1041.28 756.5 1041 756.5H830C829.724 756.5 829.5 756.276 829.5 756V711.945Z" fill="#CD7A2C" stroke="#885E1F" stroke-width="3"/>
<path d="M1035.5 711.957C1035.5 711.685 1035.72 711.463 1035.99 711.457L1308.99 705.544C1309.27 705.538 1309.5 705.763 1309.5 706.044V756C1309.5 756.276 1309.28 756.5 1309 756.5H1036C1035.72 756.5 1035.5 756.276 1035.5 756V711.957Z" fill="#CD7A2C" stroke="#885E1F" stroke-width="3"/>
<path d="M990.5 659.078C990.5 658.795 990.736 658.568 991.019 658.579L1145.02 664.486C1145.29 664.497 1145.5 664.717 1145.5 664.986V709C1145.5 709.276 1145.28 709.5 1145 709.5H991C990.724 709.5 990.5 709.276 990.5 709V659.078Z" fill="#CD7A2C" stroke="#885E1F" stroke-width="3"/>
<path d="M1143.5 665C1143.5 664.724 1143.72 664.5 1144 664.5H1297C1297.28 664.5 1297.5 664.724 1297.5 665V709C1297.5 709.276 1297.28 709.5 1297 709.5H1144C1143.72 709.5 1143.5 709.276 1143.5 709V665Z" fill="#CD7A2C" stroke="#885E1F" stroke-width="3"/>
<rect x="953.5" y="401.5" width="245" height="24" fill="#CD7A2C" stroke="#885E1F" stroke-width="3"/>
<path d="M864.393 589.014C864.678 588.687 865.09 588.5 865.523 588.5H1277.41C1277.9 588.5 1278.36 588.74 1278.64 589.143L1306.49 629.143C1307.18 630.137 1306.47 631.5 1305.26 631.5H830.602C829.314 631.5 828.625 629.984 829.472 629.014L864.393 589.014Z" fill="#E9A33F" stroke="#885E1F" stroke-width="3"/>
<path d="M1122 558.572C1122 586.973 1098.95 610 1070.5 610C1042.05 610 1019 586.973 1019 558.572C1019 530.172 1042.05 507.145 1070.5 507.145C1098.95 507.145 1122 530.172 1122 558.572Z" fill="#FFA91E" stroke="#4E2E00" stroke-width="4"/>
<ellipse cx="1048.64" cy="553.279" rx="5.46594" ry="5.45855" fill="#4E2E00"/>
<ellipse cx="1050.62" cy="551.129" rx="2.81579" ry="2.64657" fill="#FEFEFE"/>
<ellipse cx="1090.04" cy="553.279" rx="5.46594" ry="5.45855" fill="#4E2E00"/>
<ellipse cx="1092.03" cy="551.129" rx="2.81579" ry="2.64657" fill="#FEFEFE"/>
<path d="M1065.37 562.046C1067.01 563.294 1071.16 565.042 1074.64 562.046" stroke="#4E2E00" stroke-width="4" stroke-linecap="round" stroke-linejoin="bevel"/>
<ellipse cx="1033.56" cy="582.557" rx="2.31889" ry="2.31575" fill="#EA7000"/>
<ellipse cx="1042.01" cy="582.392" rx="1.15944" ry="1.15788" fill="#EA7000"/>
<ellipse cx="1040.35" cy="590.993" rx="3.47833" ry="3.47362" fill="#EA7000"/>
<ellipse cx="1050.96" cy="586.692" rx="4.14087" ry="4.13526" fill="#EA7000"/>
<ellipse cx="1092.03" cy="520.859" rx="4.14087" ry="4.13526" fill="#EA7000"/>
<ellipse cx="1048.64" cy="597.278" rx="1.82198" ry="1.81951" fill="#EA7000"/>
<ellipse cx="1101.64" cy="526.814" rx="1.82198" ry="1.81951" fill="#EA7000"/>
<path d="M1060.55 498.199L1062.22 507.364L1072.3 506.622L1073.28 497.577C1070.67 492.47 1060.55 498.199 1060.55 498.199Z" fill="#62B333" stroke="#4E2E00" stroke-width="4"/>
<path d="M1073.15 505.641C1075.14 501.285 1082.92 489.431 1090.54 495.882C1089.93 499.135 1086.4 508.784 1073.15 505.641Z" fill="#308800" stroke="#4E2E00" stroke-width="4"/>
<path d="M1195 573.495C1195 590.895 1180.9 605 1163.5 605C1146.1 605 1132 590.895 1132 573.495C1132 556.094 1146.1 541.989 1163.5 541.989C1180.9 541.989 1195 556.094 1195 573.495Z" fill="#62B333" stroke="#4E2E00" stroke-width="4"/>
<ellipse cx="1149.81" cy="570.175" rx="3.4226" ry="3.42316" fill="#4E2E00"/>
<ellipse cx="1151.05" cy="568.827" rx="1.76316" ry="1.65971" fill="#FEFEFE"/>
<ellipse cx="1175.74" cy="570.175" rx="3.42259" ry="3.42316" fill="#4E2E00"/>
<ellipse cx="1176.98" cy="568.827" rx="1.76316" ry="1.65971" fill="#FEFEFE"/>
<path d="M1160.28 575.673C1161.31 576.456 1163.91 577.552 1166.09 575.673" stroke="#4E2E00" stroke-width="3" stroke-linecap="round" stroke-linejoin="bevel"/>
<ellipse cx="1140.37" cy="588.536" rx="1.45201" ry="1.45225" fill="#308800"/>
<ellipse cx="1145.66" cy="588.432" rx="0.726007" ry="0.726124" fill="#308800"/>
<ellipse cx="1144.62" cy="593.826" rx="2.17802" ry="2.17837" fill="#308800"/>
<ellipse cx="1151.26" cy="591.129" rx="2.59288" ry="2.5933" fill="#308800"/>
<ellipse cx="1176.98" cy="549.844" rx="2.59288" ry="2.5933" fill="#308800"/>
<ellipse cx="1149.81" cy="597.768" rx="1.14087" ry="1.14105" fill="#308800"/>
<ellipse cx="1183" cy="553.578" rx="1.14087" ry="1.14105" fill="#308800"/>
<path d="M1157.27 535.633L1158.32 541.381L1164.63 540.915L1165.24 535.243C1163.6 532.04 1157.27 535.633 1157.27 535.633Z" fill="#308800" stroke="#4E2E00" stroke-width="4"/>
<path d="M1165.16 540.3C1166.4 537.569 1171.28 530.135 1176.05 534.18C1175.67 536.22 1173.46 542.271 1165.16 540.3Z" fill="#308800" stroke="#4E2E00" stroke-width="4"/>
<path d="M952.414 525.955C951.525 513.056 959.822 516.874 964.081 520.395C976.489 522.249 1002.97 532.183 1009.64 557.091C1016.31 582 996.861 598.977 986.305 604.351C981.416 614.582 974.267 608.614 971.304 604.351C921.968 593.231 938.154 547.454 952.414 525.955Z" fill="#FFFF42" stroke="#4E2E00" stroke-width="3"/>
<ellipse cx="958.282" cy="560.276" rx="4.28165" ry="4.27585" fill="#4E2E00"/>
<ellipse cx="959.839" cy="558.591" rx="2.2057" ry="2.07314" fill="#FEFEFE"/>
<ellipse cx="990.718" cy="560.276" rx="4.28164" ry="4.27585" fill="#4E2E00"/>
<ellipse cx="992.275" cy="558.591" rx="2.2057" ry="2.07314" fill="#FEFEFE"/>
<path d="M971.386 567.143C972.673 568.121 975.927 569.49 978.652 567.143" stroke="#4E2E00" stroke-width="4" stroke-linecap="round" stroke-linejoin="bevel"/>
<defs>
<filter id="filter0_d" x="592" y="133" width="150" height="108" filterUnits="userSpaceOnUse" color-interpolation-filters="sRGB">
<feFlood flood-opacity="0" result="BackgroundImageFix"/>
<feColorMatrix in="SourceAlpha" type="matrix" values="0 0 0 0 0 0 0 0 0 0 0 0 0 0 0 0 0 0 127 0"/>
<feOffset dy="4"/>
<feGaussianBlur stdDeviation="2"/>
<feColorMatrix type="matrix" values="0 0 0 0 0 0 0 0 0 0 0 0 0 0 0 0 0 0 0.1 0"/>
<feBlend mode="normal" in2="BackgroundImageFix" result="effect1_dropShadow"/>
<feBlend mode="normal" in="SourceGraphic" in2="effect1_dropShadow" result="shape"/>
</filter>
<filter id="filter1_d" x="786" y="193" width="92.15" height="73" filterUnits="userSpaceOnUse" color-interpolation-filters="sRGB">
<feFlood flood-opacity="0" result="BackgroundImageFix"/>
<feColorMatrix in="SourceAlpha" type="matrix" values="0 0 0 0 0 0 0 0 0 0 0 0 0 0 0 0 0 0 127 0"/>
<feOffset dy="4"/>
<feGaussianBlur stdDeviation="2"/>
<feColorMatrix type="matrix" values="0 0 0 0 0 0 0 0 0 0 0 0 0 0 0 0 0 0 0.1 0"/>
<feBlend mode="normal" in2="BackgroundImageFix" result="effect1_dropShadow"/>
<feBlend mode="normal" in="SourceGraphic" in2="effect1_dropShadow" result="shape"/>
</filter>
<filter id="filter2_d" x="349" y="57" width="213" height="152.366" filterUnits="userSpaceOnUse" color-interpolation-filters="sRGB">
<feFlood flood-opacity="0" result="BackgroundImageFix"/>
<feColorMatrix in="SourceAlpha" type="matrix" values="0 0 0 0 0 0 0 0 0 0 0 0 0 0 0 0 0 0 127 0"/>
<feOffset dy="4"/>
<feGaussianBlur stdDeviation="2"/>
<feColorMatrix type="matrix" values="0 0 0 0 0 0 0 0 0 0 0 0 0 0 0 0 0 0 0.1 0"/>
<feBlend mode="normal" in2="BackgroundImageFix" result="effect1_dropShadow"/>
<feBlend mode="normal" in="SourceGraphic" in2="effect1_dropShadow" result="shape"/>
</filter>
<linearGradient id="paint0_linear" x1="720" y1="0" x2="720" y2="900" gradientUnits="userSpaceOnUse">
<stop stop-color="#99E4FF"/>
<stop offset="1" stop-color="#67F6FF" stop-opacity="0"/>
</linearGradient>
<linearGradient id="paint1_linear" x1="673" y1="644" x2="673" y2="1029" gradientUnits="userSpaceOnUse">
<stop offset="0.166667" stop-color="#62B333"/>
<stop offset="1" stop-color="#FFE600" stop-opacity="0"/>
</linearGradient>
<linearGradient id="paint2_linear" x1="591.394" y1="639.43" x2="591.394" y2="862.205" gradientUnits="userSpaceOnUse">
<stop offset="0.166667" stop-color="#62B333"/>
<stop offset="1" stop-color="#FFE600" stop-opacity="0"/>
</linearGradient>
</defs>
</svg>
