<svg width="323" height="361" viewBox="0 0 323 361" fill="none" xmlns="http://www.w3.org/2000/svg">
<path d="M318 199.641C318 285.811 247.946 355.688 161.5 355.688C75.0542 355.688 5 285.811 5 199.641C5 113.472 75.0542 43.594 161.5 43.594C247.946 43.594 318 113.472 318 199.641Z" fill="#FFA91E" stroke="#4E2E00" stroke-width="10"/>
<ellipse cx="95.5" cy="183.686" rx="16.5" ry="16.4537" fill="#4E2E00"/>
<ellipse cx="101.5" cy="177.204" rx="8.5" ry="7.97758" fill="#FEFEFE"/>
<ellipse cx="220.5" cy="183.686" rx="16.5" ry="16.4537" fill="#4E2E00"/>
<ellipse cx="226.5" cy="177.204" rx="8.5" ry="7.97758" fill="#FEFEFE"/>
<path d="M146 210.112C150.958 213.874 163.5 219.142 174 210.112" stroke="#4E2E00" stroke-width="6" stroke-linecap="round" stroke-linejoin="bevel"/>
<ellipse cx="50" cy="271.938" rx="7" ry="6.98038" fill="#EA7000"/>
<ellipse cx="75.5" cy="271.439" rx="3.5" ry="3.49019" fill="#EA7000"/>
<ellipse cx="70.5" cy="297.367" rx="10.5" ry="10.4706" fill="#EA7000"/>
<ellipse cx="102.5" cy="284.403" rx="12.5" ry="12.465" fill="#EA7000"/>
<ellipse cx="226.5" cy="85.9609" rx="12.5" ry="12.465" fill="#EA7000"/>
<ellipse cx="95.5" cy="316.313" rx="5.5" ry="5.48457" fill="#EA7000"/>
<ellipse cx="255.5" cy="103.91" rx="5.5" ry="5.48458" fill="#EA7000"/>
<path d="M131.46 17.6561L136.511 45.282L166.928 43.0454L169.885 15.7815C161.999 0.387414 131.46 17.6561 131.46 17.6561Z" fill="#62B333" stroke="#4E2E00" stroke-width="10"/>
<path d="M169.5 40.0898C175.5 26.9601 199 -8.77279 222 10.6725C220.167 20.4783 209.5 49.5632 169.5 40.0898Z" fill="#308800" stroke="#4E2E00" stroke-width="10"/>
</svg>
